<?xml version="1.0" encoding="UTF-8"?>
<svg width="111px" height="18px" viewBox="0 0 111 18" version="1.1" xmlns="http://www.w3.org/2000/svg" xmlns:xlink="http://www.w3.org/1999/xlink">
    <title>Group 4</title>
    <g id="Page-1" stroke="none" stroke-width="1" fill="none" fill-rule="evenodd">
        <g id="Mojo-pizza-Final_Social-Proof" transform="translate(-742.000000, -671.000000)">
            <g id="Group-4" transform="translate(742.000000, 671.000000)">
                <g id="shape-star" fill="#F5A623">
                    <path d="M18.085471,6.29879516 L12.3314661,5.46279677 L9.75919355,0.248879032 C9.68596633,0.124344969 9.55229123,0.0478751526 9.40782339,0.0478751526 C9.26335554,0.0478751526 9.12968045,0.124344969 9.05645323,0.248879032 L6.48300484,5.46162097 L0.727432258,6.29879516 C0.579792091,6.32010581 0.457048772,6.42337802 0.410801288,6.56519809 C0.364553804,6.70701816 0.402821025,6.86279586 0.509516129,6.96704516 L4.67422258,11.025929 L3.69124839,16.7568097 C3.66616305,16.9037317 3.72658342,17.0521666 3.84714565,17.1398029 C3.96770787,17.2274392 4.12754338,17.2391075 4.25955484,17.1699097 L9.40645161,14.464379 L14.5533484,17.1687339 C14.6853598,17.2379317 14.8451954,17.2262634 14.9657576,17.1386271 C15.0863198,17.0509908 15.1467402,16.9025559 15.1216548,16.7556339 L14.1386806,11.025929 L18.3033871,6.96704516 C18.4100657,6.86284964 18.4483739,6.70714384 18.4022169,6.56534626 C18.3560599,6.42354867 18.2334354,6.32022862 18.0858629,6.29879516 L18.085471,6.29879516 Z" id="Path"></path>
                </g>
                <g id="shape-star-copy" transform="translate(23.000000, 0.000000)" fill="#F5A623">
                    <path d="M18.085471,6.29879516 L12.3314661,5.46279677 L9.75919355,0.248879032 C9.68596633,0.124344969 9.55229123,0.0478751526 9.40782339,0.0478751526 C9.26335554,0.0478751526 9.12968045,0.124344969 9.05645323,0.248879032 L6.48300484,5.46162097 L0.727432258,6.29879516 C0.579792091,6.32010581 0.457048772,6.42337802 0.410801288,6.56519809 C0.364553804,6.70701816 0.402821025,6.86279586 0.509516129,6.96704516 L4.67422258,11.025929 L3.69124839,16.7568097 C3.66616305,16.9037317 3.72658342,17.0521666 3.84714565,17.1398029 C3.96770787,17.2274392 4.12754338,17.2391075 4.25955484,17.1699097 L9.40645161,14.464379 L14.5533484,17.1687339 C14.6853598,17.2379317 14.8451954,17.2262634 14.9657576,17.1386271 C15.0863198,17.0509908 15.1467402,16.9025559 15.1216548,16.7556339 L14.1386806,11.025929 L18.3033871,6.96704516 C18.4100657,6.86284964 18.4483739,6.70714384 18.4022169,6.56534626 C18.3560599,6.42354867 18.2334354,6.32022862 18.0858629,6.29879516 L18.085471,6.29879516 Z" id="Path"></path>
                </g>
                <g id="shape-star-copy-2" transform="translate(46.000000, 0.000000)" fill="#F5A623">
                    <path d="M18.085471,6.29879516 L12.3314661,5.46279677 L9.75919355,0.248879032 C9.68596633,0.124344969 9.55229123,0.0478751526 9.40782339,0.0478751526 C9.26335554,0.0478751526 9.12968045,0.124344969 9.05645323,0.248879032 L6.48300484,5.46162097 L0.727432258,6.29879516 C0.579792091,6.32010581 0.457048772,6.42337802 0.410801288,6.56519809 C0.364553804,6.70701816 0.402821025,6.86279586 0.509516129,6.96704516 L4.67422258,11.025929 L3.69124839,16.7568097 C3.66616305,16.9037317 3.72658342,17.0521666 3.84714565,17.1398029 C3.96770787,17.2274392 4.12754338,17.2391075 4.25955484,17.1699097 L9.40645161,14.464379 L14.5533484,17.1687339 C14.6853598,17.2379317 14.8451954,17.2262634 14.9657576,17.1386271 C15.0863198,17.0509908 15.1467402,16.9025559 15.1216548,16.7556339 L14.1386806,11.025929 L18.3033871,6.96704516 C18.4100657,6.86284964 18.4483739,6.70714384 18.4022169,6.56534626 C18.3560599,6.42354867 18.2334354,6.32022862 18.0858629,6.29879516 L18.085471,6.29879516 Z" id="Path"></path>
                </g>
                <g id="shape-star-copy-3" transform="translate(69.000000, 0.000000)" fill="#F5A623">
                    <path d="M18.085471,6.29879516 L12.3314661,5.46279677 L9.75919355,0.248879032 C9.68596633,0.124344969 9.55229123,0.0478751526 9.40782339,0.0478751526 C9.26335554,0.0478751526 9.12968045,0.124344969 9.05645323,0.248879032 L6.48300484,5.46162097 L0.727432258,6.29879516 C0.579792091,6.32010581 0.457048772,6.42337802 0.410801288,6.56519809 C0.364553804,6.70701816 0.402821025,6.86279586 0.509516129,6.96704516 L4.67422258,11.025929 L3.69124839,16.7568097 C3.66616305,16.9037317 3.72658342,17.0521666 3.84714565,17.1398029 C3.96770787,17.2274392 4.12754338,17.2391075 4.25955484,17.1699097 L9.40645161,14.464379 L14.5533484,17.1687339 C14.6853598,17.2379317 14.8451954,17.2262634 14.9657576,17.1386271 C15.0863198,17.0509908 15.1467402,16.9025559 15.1216548,16.7556339 L14.1386806,11.025929 L18.3033871,6.96704516 C18.4100657,6.86284964 18.4483739,6.70714384 18.4022169,6.56534626 C18.3560599,6.42354867 18.2334354,6.32022862 18.0858629,6.29879516 L18.085471,6.29879516 Z" id="Path"></path>
                </g>
                <g id="shape-star-copy-4" transform="translate(92.000000, 0.000000)">
                    <path d="M18.085471,6.29879516 L12.3314661,5.46279677 L9.75919355,0.248879032 C9.68596633,0.124344969 9.55229123,0.0478751526 9.40782339,0.0478751526 C9.26335554,0.0478751526 9.12968045,0.124344969 9.05645323,0.248879032 L6.48300484,5.46162097 L0.727432258,6.29879516 C0.579792091,6.32010581 0.457048772,6.42337802 0.410801288,6.56519809 C0.364553804,6.70701816 0.402821025,6.86279586 0.509516129,6.96704516 L4.67422258,11.025929 L3.69124839,16.7568097 C3.66616305,16.9037317 3.72658342,17.0521666 3.84714565,17.1398029 C3.96770787,17.2274392 4.12754338,17.2391075 4.25955484,17.1699097 L9.40645161,14.464379 L14.5533484,17.1687339 C14.6853598,17.2379317 14.8451954,17.2262634 14.9657576,17.1386271 C15.0863198,17.0509908 15.1467402,16.9025559 15.1216548,16.7556339 L14.1386806,11.025929 L18.3033871,6.96704516 C18.4100657,6.86284964 18.4483739,6.70714384 18.4022169,6.56534626 C18.3560599,6.42354867 18.2334354,6.32022862 18.0858629,6.29879516 L18.085471,6.29879516 Z" id="Path" fill="#F5A623"></path>
                    <path d="M12.3314661,5.46279677 L9.75919355,0.248879032 C9.68596633,0.124344969 9.55229123,0.0478751526 9.40782339,0.0478751526 C9.31151149,0.0478751526 9.31105423,4.85337645 9.40645161,14.464379 L14.5533484,17.1687339 C14.6853598,17.2379317 14.8451954,17.2262634 14.9657576,17.1386271 C15.0863198,17.0509908 15.1467402,16.9025559 15.1216548,16.7556339 L14.1386806,11.025929 L18.3033871,6.96704516 C18.4100657,6.86284964 18.4483739,6.70714384 18.4022169,6.56534626 C18.3560599,6.42354867 18.2334354,6.32022862 18.0858629,6.29879516 L12.3314661,5.46279677 Z" id="Path" fill="#E9E9EB"></path>
                </g>
            </g>
        </g>
    </g>
</svg>